<svg xmlns="http://www.w3.org/2000/svg" width="34.5" height="34.5" viewBox="0 0 34.5 34.5">
  <g id="font" transform="translate(0.25 0.25)">
    <g id="Group_797" data-name="Group 797">
      <g id="Group_796" data-name="Group 796">
        <path id="Path_967" data-name="Path 967" d="M169.194,137.017h3.061v12.045c0,.71.865,1.065,1.73,1.065s1.73-.355,1.73-1.065V137.017h3.061c.665,0,1.043-.732,1.043-1.575,0-.732-.311-1.531-1.043-1.531h-9.582c-.732,0-1.043.8-1.043,1.531C168.151,136.285,168.528,137.017,169.194,137.017Z" transform="translate(-156.985 -125.019)" fill="#f9a22a" stroke="#f9a22a" stroke-width="0.5"/>
        <path id="Path_968" data-name="Path 968" d="M32.672,0H1.328A1.328,1.328,0,0,0,0,1.328V32.672A1.328,1.328,0,0,0,1.328,34H32.672A1.328,1.328,0,0,0,34,32.672V1.328A1.328,1.328,0,0,0,32.672,0ZM31.344,31.344H2.656V2.656H31.344Z" fill="#f9a22a" stroke="#f9a22a" stroke-width="0.5"/>
      </g>
    </g>
  </g>
</svg>
