<svg xmlns="http://www.w3.org/2000/svg" width="133" height="133" viewBox="0 0 133 133">
  <path id="football" d="M66.5,0A66.5,66.5,0,1,0,133,66.5,66.5,66.5,0,0,0,66.5,0Zm2.374,19.172L91.992,9.931a62.206,62.206,0,0,1,7.6,4.095l.061.038a62.422,62.422,0,0,1,6.843,5.018l.186.162q1.456,1.24,2.833,2.566c.116.114.237.222.353.338q1.443,1.409,2.8,2.905c.075.084.146.173.221.258.791.886,1.552,1.8,2.29,2.737.178.222.355.444.527.666.8,1.037,1.576,2.092,2.308,3.181L113.4,51.484,90.721,59.044,68.879,41.567ZM17.3,28.726q.258-.333.525-.665,1.094-1.388,2.263-2.709c.084-.093.162-.188.246-.281q1.344-1.5,2.785-2.9c.11-.108.221-.222.337-.321q1.365-1.317,2.809-2.551l.222-.186a62.664,62.664,0,0,1,6.778-4.987l.087-.055A62.268,62.268,0,0,1,40.9,9.975l23.224,9.2V41.56L42.283,59.034,19.609,51.489,15,31.9c.738-1.087,1.5-2.14,2.3-3.172Zm-2.671,71.79q-.977-1.49-1.869-3.037l-.144-.249q-.886-1.539-1.678-3.129l-.018-.034A61.758,61.758,0,0,1,8,87.195v-.022c-.394-1.108-.753-2.244-1.086-3.386l-.12-.421q-.456-1.609-.827-3.254c-.022-.107-.049-.209-.07-.315A61.7,61.7,0,0,1,4.728,72.29L18.26,56.051l22.517,7.505,6.535,26.139L36.575,103.982Zm66.631,26.262c-1.108.275-2.246.512-3.383.725-.159.031-.321.057-.481.087-.969.173-1.948.321-2.93.443-.262.034-.522.069-.783.1-.911.106-1.831.186-2.754.252-.29.019-.577.049-.867.067-1.179.073-2.367.115-3.564.115q-1.645,0-3.27-.087c-.131,0-.257-.022-.387-.031q-1.447-.083-2.882-.221l-.11-.021a63.161,63.161,0,0,1-6.251-1L40.488,106.681,51.057,92.588H81.943l10.742,14.186ZM127.117,79.8c-.023.106-.049.209-.071.315q-.372,1.643-.827,3.254l-.119.421c-.333,1.142-.692,2.273-1.087,3.386V87.2a61.554,61.554,0,0,1-2.919,6.872l-.018.034q-.8,1.591-1.678,3.129l-.144.249q-.886,1.552-1.866,3.033l-21.87,3.448L85.705,89.686l6.532-26.132,22.517-7.505,13.533,16.239a61.546,61.546,0,0,1-1.17,7.513Zm0,0" fill="#001548" opacity="0.2"/>
</svg>
