<svg xmlns="http://www.w3.org/2000/svg" xmlns:xlink="http://www.w3.org/1999/xlink" width="258.78" height="155.096" viewBox="0 0 258.78 155.096">
  <defs>
    <linearGradient id="linear-gradient" x1="0.5" x2="0.5" y2="1" gradientUnits="objectBoundingBox">
      <stop offset="0" stop-color="#ffaa48"/>
      <stop offset="1" stop-color="#c76a00"/>
    </linearGradient>
  </defs>
  <g id="Group_4635" data-name="Group 4635" transform="translate(-193.178 -690.904)">
    <g id="Group_4631" data-name="Group 4631" transform="translate(315.766 784.714) rotate(48)">
      <path id="Path_11820" data-name="Path 11820" d="M4.518.029C4.307.017,4.095,0,3.882,0A5.674,5.674,0,0,0,1.993.292,3.709,3.709,0,0,0,.153,1.477a1.265,1.265,0,0,0-.142.769,1.115,1.115,0,0,0,.754.9,3.447,3.447,0,0,1,1.277.715,2.967,2.967,0,0,0,.806.606,1.014,1.014,0,0,0,.715,0,8.06,8.06,0,0,1,1.823-.536c.674-.14,1.35-.283,2.033-.377a.649.649,0,0,1,.5.094c.927.565,1.764,1.271,2.642,1.909A23.958,23.958,0,0,0,8.6,3.626a1.724,1.724,0,0,0-1.225-.6c-.659.068-1.319.122-1.978.225a8.5,8.5,0,0,0-2.1.515c-.18.047-.327-.094-.443-.21A4,4,0,0,0,1.335,2.534c-.2-.084-.473-.13-.549-.366A.436.436,0,0,1,.993,1.7,4.475,4.475,0,0,1,3.32.66a8.2,8.2,0,0,1,2.3.009,6.241,6.241,0,0,1,1.6.377c.116.034.17.149.214.251a4.257,4.257,0,0,1,.179.912,4.4,4.4,0,0,0,.011-.885A.869.869,0,0,0,7.372.849a3.352,3.352,0,0,0-.988-.42,10.449,10.449,0,0,0-1.865-.4Z" transform="translate(5.84 0)" fill="#fff"/>
      <path id="Path_11821" data-name="Path 11821" d="M.914,0C.82.132.726.268.644.41A6.067,6.067,0,0,0,.093,2.072,4.323,4.323,0,0,0,.025,3.427l.015.126A4.035,4.035,0,0,0,.725,2.1,4.876,4.876,0,0,0,.914,0Z" transform="translate(7.933 5.095)" fill="#fff"/>
      <path id="Path_11822" data-name="Path 11822" d="M3.674.19a2.826,2.826,0,0,0-1.3-.176H2.326A3.807,3.807,0,0,0,1.5.074,1.341,1.341,0,0,0,.724.639a1.844,1.844,0,0,0-.2.676,21.27,21.27,0,0,1-.443,2.7A1.642,1.642,0,0,0,.108,5.121c.213.46.7.679,1.031,1.043a9.24,9.24,0,0,1,1.3,1.68,1.376,1.376,0,0,1,.142.87,6.455,6.455,0,0,1-.864,2.931,1.652,1.652,0,0,0,.389-.471A5.865,5.865,0,0,0,2.82,9.593,3.862,3.862,0,0,0,3,7.868,7.747,7.747,0,0,0,1.253,5.346,3.037,3.037,0,0,1,.8,4.9a.977.977,0,0,1,.008-.681q.171-.664.3-1.339c.026-.138.05-.275.073-.413.085-.431.1-.87.173-1.3a.565.565,0,0,1,.49-.377C2.2.767,2.558.8,2.92.782a.623.623,0,0,1,.582.225,5.549,5.549,0,0,1,.4.89c.269.712.5,1.438.723,2.167.159.549.32,1.1.447,1.657a.984.984,0,0,1,.017.625,2.432,2.432,0,0,1-.424.556,7.4,7.4,0,0,1-.885.729L3.869,7.6a9.826,9.826,0,0,0,.841-.519,2.614,2.614,0,0,0,.671-.659,1,1,0,0,0,.085-.6c-.033-.245-.078-.488-.112-.732a20.725,20.725,0,0,0-1.02-4.007A1.778,1.778,0,0,0,3.674.19Z" transform="translate(16.866 6.315)" fill="#fff"/>
      <path id="Path_11823" data-name="Path 11823" d="M4.884.15A1.308,1.308,0,0,0,3.409.329C3.326.384,3.244.443,3.161.5c-.248.173-.5.346-.743.521-.471.326-.926.659-1.4.985-.183.121-.367.238-.538.377A1.6,1.6,0,0,0,.119,2.8,1.454,1.454,0,0,0,.1,3.907c.206.827.465,1.64.7,2.463.125.444.235.892.387,1.327a.971.971,0,0,0,.77.616c.377.046.764.064,1.146.087s.792.03,1.187.062a1.832,1.832,0,0,1,.205.063A.848.848,0,0,0,4.534,8.4a.348.348,0,0,1-.283,0c-.4-.08-.8-.149-1.2-.222A3.413,3.413,0,0,1,1.8,7.882.875.875,0,0,1,1.5,7.273c-.219-1.153-.478-2.3-.729-3.45a1.194,1.194,0,0,1-.059-.644,1.652,1.652,0,0,1,.471-.4C2.143,2.145,3.095,1.491,4.051.837c.18-.148.413-.038.565.094,1.016.848,2.033,1.705,3.063,2.543a.478.478,0,0,1,.228.552C7.462,5.313,7,6.6,6.58,7.889a1.325,1.325,0,0,0-.024.722,4.183,4.183,0,0,0,.848.967c.428.394.821.825,1.252,1.215C8.338,10.361,8,9.946,7.67,9.519c-.213-.27-.438-.531-.642-.809A.612.612,0,0,1,6.947,8.1c.248-.586.5-1.169.743-1.758.219-.518.431-1.036.647-1.558A3.024,3.024,0,0,0,8.62,3.9l.007-.063a1.308,1.308,0,0,0-.577-1q-.283-.238-.565-.485Q6.476,1.487,5.47.629A5.3,5.3,0,0,0,4.884.15Z" transform="translate(3.475 9.051)" fill="#fff"/>
      <path id="Path_11824" data-name="Path 11824" d="M2.13,1.158A6.861,6.861,0,0,0,0,0,5.565,5.565,0,0,0,.611.678,10.873,10.873,0,0,0,2.3,1.847a5.516,5.516,0,0,0,.934.377,5.161,5.161,0,0,0-1.1-1.066Z" transform="translate(0 9.531)" fill="#fff"/>
      <path id="Path_11825" data-name="Path 11825" d="M4.119.018a4.978,4.978,0,0,0-.837,0,7.725,7.725,0,0,0-1.14.206c-.259.07-.524.144-.782.231A5.259,5.259,0,0,0,0,1.124l.17.018a7.31,7.31,0,0,0,2.5-.419,6.448,6.448,0,0,0,1-.418c.151-.087.3-.176.442-.277Z" transform="translate(12.391 11.458)" fill="#fff"/>
      <path id="Path_11827" data-name="Path 11827" d="M6.312.021a.874.874,0,0,0-.377,0C5.647.141,5.377.3,5.087.427Q4.8.551,4.522.657A8.525,8.525,0,0,1,3.4.984a6.485,6.485,0,0,1-1.366.132.7.7,0,0,0-.6.422,4.2,4.2,0,0,1-1.119,1.9c-.089.081-.188.154-.275.236L0,3.707A3.887,3.887,0,0,0,.692,3.36c.094-.078.188-.154.274-.234A3.768,3.768,0,0,0,1.751,1.97c.072-.188.194-.4.432-.356A6.25,6.25,0,0,0,5.981.378a.274.274,0,0,1,.377.072A3.941,3.941,0,0,1,6.68,1.52,3.059,3.059,0,0,0,6.693.927C6.671.6,6.654.184,6.312.021Z" transform="translate(11.318 19.403)" fill="#fff"/>
    </g>
    <g id="Group_4632" data-name="Group 4632" transform="translate(357.306 777.496) rotate(48)">
      <path id="Path_11820-2" data-name="Path 11820" d="M4.518.029C4.307.017,4.095,0,3.882,0A5.674,5.674,0,0,0,1.993.292,3.709,3.709,0,0,0,.153,1.477a1.265,1.265,0,0,0-.142.769,1.115,1.115,0,0,0,.754.9,3.447,3.447,0,0,1,1.277.715,2.967,2.967,0,0,0,.806.606,1.014,1.014,0,0,0,.715,0,8.06,8.06,0,0,1,1.823-.536c.674-.14,1.35-.283,2.033-.377a.649.649,0,0,1,.5.094c.927.565,1.764,1.271,2.642,1.909A23.958,23.958,0,0,0,8.6,3.626a1.724,1.724,0,0,0-1.225-.6c-.659.068-1.319.122-1.978.225a8.5,8.5,0,0,0-2.1.515c-.18.047-.327-.094-.443-.21A4,4,0,0,0,1.335,2.534c-.2-.084-.473-.13-.549-.366A.436.436,0,0,1,.993,1.7,4.475,4.475,0,0,1,3.32.66a8.2,8.2,0,0,1,2.3.009,6.241,6.241,0,0,1,1.6.377c.116.034.17.149.214.251a4.257,4.257,0,0,1,.179.912,4.4,4.4,0,0,0,.011-.885A.869.869,0,0,0,7.372.849a3.352,3.352,0,0,0-.988-.42,10.449,10.449,0,0,0-1.865-.4Z" transform="translate(5.84 0)" fill="#fff"/>
      <path id="Path_11821-2" data-name="Path 11821" d="M.914,0C.82.132.726.268.644.41A6.067,6.067,0,0,0,.093,2.072,4.323,4.323,0,0,0,.025,3.427l.015.126A4.035,4.035,0,0,0,.725,2.1,4.876,4.876,0,0,0,.914,0Z" transform="translate(7.933 5.095)" fill="#fff"/>
      <path id="Path_11822-2" data-name="Path 11822" d="M3.674.19a2.826,2.826,0,0,0-1.3-.176H2.326A3.807,3.807,0,0,0,1.5.074,1.341,1.341,0,0,0,.724.639a1.844,1.844,0,0,0-.2.676,21.27,21.27,0,0,1-.443,2.7A1.642,1.642,0,0,0,.108,5.121c.213.46.7.679,1.031,1.043a9.24,9.24,0,0,1,1.3,1.68,1.376,1.376,0,0,1,.142.87,6.455,6.455,0,0,1-.864,2.931,1.652,1.652,0,0,0,.389-.471A5.865,5.865,0,0,0,2.82,9.593,3.862,3.862,0,0,0,3,7.868,7.747,7.747,0,0,0,1.253,5.346,3.037,3.037,0,0,1,.8,4.9a.977.977,0,0,1,.008-.681q.171-.664.3-1.339c.026-.138.05-.275.073-.413.085-.431.1-.87.173-1.3a.565.565,0,0,1,.49-.377C2.2.767,2.558.8,2.92.782a.623.623,0,0,1,.582.225,5.549,5.549,0,0,1,.4.89c.269.712.5,1.438.723,2.167.159.549.32,1.1.447,1.657a.984.984,0,0,1,.017.625,2.432,2.432,0,0,1-.424.556,7.4,7.4,0,0,1-.885.729L3.869,7.6a9.826,9.826,0,0,0,.841-.519,2.614,2.614,0,0,0,.671-.659,1,1,0,0,0,.085-.6c-.033-.245-.078-.488-.112-.732a20.725,20.725,0,0,0-1.02-4.007A1.778,1.778,0,0,0,3.674.19Z" transform="translate(16.866 6.315)" fill="#fff"/>
      <path id="Path_11823-2" data-name="Path 11823" d="M4.884.15A1.308,1.308,0,0,0,3.409.329C3.326.384,3.244.443,3.161.5c-.248.173-.5.346-.743.521-.471.326-.926.659-1.4.985-.183.121-.367.238-.538.377A1.6,1.6,0,0,0,.119,2.8,1.454,1.454,0,0,0,.1,3.907c.206.827.465,1.64.7,2.463.125.444.235.892.387,1.327a.971.971,0,0,0,.77.616c.377.046.764.064,1.146.087s.792.03,1.187.062a1.832,1.832,0,0,1,.205.063A.848.848,0,0,0,4.534,8.4a.348.348,0,0,1-.283,0c-.4-.08-.8-.149-1.2-.222A3.413,3.413,0,0,1,1.8,7.882.875.875,0,0,1,1.5,7.273c-.219-1.153-.478-2.3-.729-3.45a1.194,1.194,0,0,1-.059-.644,1.652,1.652,0,0,1,.471-.4C2.143,2.145,3.095,1.491,4.051.837c.18-.148.413-.038.565.094,1.016.848,2.033,1.705,3.063,2.543a.478.478,0,0,1,.228.552C7.462,5.313,7,6.6,6.58,7.889a1.325,1.325,0,0,0-.024.722,4.183,4.183,0,0,0,.848.967c.428.394.821.825,1.252,1.215C8.338,10.361,8,9.946,7.67,9.519c-.213-.27-.438-.531-.642-.809A.612.612,0,0,1,6.947,8.1c.248-.586.5-1.169.743-1.758.219-.518.431-1.036.647-1.558A3.024,3.024,0,0,0,8.62,3.9l.007-.063a1.308,1.308,0,0,0-.577-1q-.283-.238-.565-.485Q6.476,1.487,5.47.629A5.3,5.3,0,0,0,4.884.15Z" transform="translate(3.475 9.051)" fill="#fff"/>
      <path id="Path_11824-2" data-name="Path 11824" d="M2.13,1.158A6.861,6.861,0,0,0,0,0,5.565,5.565,0,0,0,.611.678,10.873,10.873,0,0,0,2.3,1.847a5.516,5.516,0,0,0,.934.377,5.161,5.161,0,0,0-1.1-1.066Z" transform="translate(0 9.531)" fill="#fff"/>
      <path id="Path_11825-2" data-name="Path 11825" d="M4.119.018a4.978,4.978,0,0,0-.837,0,7.725,7.725,0,0,0-1.14.206c-.259.07-.524.144-.782.231A5.259,5.259,0,0,0,0,1.124l.17.018a7.31,7.31,0,0,0,2.5-.419,6.448,6.448,0,0,0,1-.418c.151-.087.3-.176.442-.277Z" transform="translate(12.391 11.458)" fill="#fff"/>
      <path id="Path_11827-2" data-name="Path 11827" d="M6.312.021a.874.874,0,0,0-.377,0C5.647.141,5.377.3,5.087.427Q4.8.551,4.522.657A8.525,8.525,0,0,1,3.4.984a6.485,6.485,0,0,1-1.366.132.7.7,0,0,0-.6.422,4.2,4.2,0,0,1-1.119,1.9c-.089.081-.188.154-.275.236L0,3.707A3.887,3.887,0,0,0,.692,3.36c.094-.078.188-.154.274-.234A3.768,3.768,0,0,0,1.751,1.97c.072-.188.194-.4.432-.356A6.25,6.25,0,0,0,5.981.378a.274.274,0,0,1,.377.072A3.941,3.941,0,0,1,6.68,1.52,3.059,3.059,0,0,0,6.693.927C6.671.6,6.654.184,6.312.021Z" transform="translate(11.318 19.403)" fill="#fff"/>
    </g>
    <path id="Path_11783" data-name="Path 11783" d="M16.141,22.494l-4.909,1.319L11.49,19.8a15.072,15.072,0,0,0-4.165-.167q-.471.03-1.048.106L4.666,23.965,0,23.922q3.845-9,11.232-23.755L17.585,0a172.319,172.319,0,0,0-1.444,22.494Zm-4.255-6.9q.122-2.493.258-5,.213-2.9.577-5.061Q11.049,8.907,7.964,15.67q.514-.076.957-.106A13.086,13.086,0,0,1,11.886,15.593Zm23.085,6.459-4.59.729-3.845-9.788q-.456,1.717-.714,2.675-.988,3.632-2.052,7.706l-4.7.411q1.292-5.652,2.8-11.3,1.02-3.815,2.051-7.573l-.56-1.687L28.436.183l3.937,12.28q.5-2.462,1.2-4.955A57.287,57.287,0,0,1,36.035.061L40.18,1.642q-1.429,4.408-2.569,8.588Q36.035,16.109,34.971,22.053Zm22.42-11.535A17.623,17.623,0,0,1,51.76,19.2q-4.311,3.792-13.05,4.536.669-3.009,1.474-6.019,1.763-6.581,4.1-13.041a9.043,9.043,0,0,0-1.566.377l.5-4.251A16.147,16.147,0,0,1,45.971.319q5.441-.471,8.891,2.022,3.956,2.826,2.527,8.176Zm-4.468.411A4.239,4.239,0,0,0,51.6,6.08,7.913,7.913,0,0,0,46.649,4.5L48.26,5.943A54.676,54.676,0,0,0,45.8,13.132q-.547,2.022-1.507,5.7a10.868,10.868,0,0,0,5.464-2.8,10.457,10.457,0,0,0,3.166-5.107Z" transform="translate(370.758 727.739) rotate(-10)" fill="none" stroke="#e38110" stroke-width="1"/>
    <path id="Path_11782" data-name="Path 11782" d="M38.261,1.456l-3.617,11-8.018.669a5.175,5.175,0,0,0-1.923,1.3,4.887,4.887,0,0,0-1.26,1.9q-.233,1,.891,5.25,1.487,5.815,1.884,8.507a22.8,22.8,0,0,1-.237,9.205,16.18,16.18,0,0,1-1.526,3.79q-3.183,5.452-11.368,8.681A45.155,45.155,0,0,1,0,54.95l1.763-11.8a38.609,38.609,0,0,0,8.847-2.1,5.051,5.051,0,0,0,3.315-3.425q.565-1.927-.427-6.68-.959-3.554-1.918-7.239A16.531,16.531,0,0,1,11.22,16a17.7,17.7,0,0,1,4.195-7.43,21.6,21.6,0,0,1,6.977-5.338A22.138,22.138,0,0,1,30.012,1.4a46.615,46.615,0,0,1,8.249.057ZM77.455.47Q72.808,14.4,69.522,26.729q-3.187,11.9-5.61,24.031l-10.4.205,4.579-17.083L45.1,33.425q-1.493,4.554-2.722,9.138Q41.052,47.615,39.989,52.9l-10.469.172q1.361-5.916,3.453-13.627Q38.085,20.1,43.794,2.75l10.4-.236L48.818,22.753l11.264.393,1.225-4.587q.3-.9,1.594-5.883l4.152-12Zm35.8,26.5a36.878,36.878,0,0,1-9.55,16.589q-7.624,7.947-16.338,8.683-8.78.8-11.989-7.2-2.646-6.911-.094-16.55a43.9,43.9,0,0,1,9.49-17.651q7.758-8.845,16.868-9.647Q113.4.152,116.146,10.352L112.6,13.146q2.945,5.614.654,13.824ZM106.7,16.7q-1.454-5.217-8.015-4.648-4.9.471-8.949,5.988A29.679,29.679,0,0,0,84.991,28.08a21.043,21.043,0,0,0-.635,9.505q1.024,4.951,5.961,4.55,4.44-.4,8.418-5.123a22.7,22.7,0,0,0,4.643-8.943q1.394-5.052-.459-8.408Zm48.96,10.241a36.878,36.878,0,0,1-9.55,16.589q-7.625,7.947-16.338,8.683-8.78.8-11.989-7.2-2.646-6.911-.094-16.55a43.9,43.9,0,0,1,9.485-17.653q7.758-8.845,16.869-9.647Q155.8.122,158.548,10.323l-3.542,2.8q2.943,5.614.653,13.824ZM149.1,16.674q-1.454-5.217-8.015-4.648-4.9.471-8.949,5.988A29.674,29.674,0,0,0,127.4,28.053a21.043,21.043,0,0,0-.635,9.505q1.024,4.951,5.961,4.55,4.44-.4,8.418-5.123a22.7,22.7,0,0,0,4.643-8.943q1.394-5.052-.459-8.408ZM199.438,0l-3.154,11.9-17.758,1.6,5.83,1.7q-3.816,11.87-6.473,21.971-2.191,8.144-4.349,16.054l-9.839-.294q1.927-9.7,4.483-19.278,2.826-10.6,6.439-20.94l-11.132.971,2.888-10.769Z" transform="translate(220.099 790.808) rotate(-10)" fill="none" stroke="#fff" stroke-width="1"/>
    <path id="Path_11779" data-name="Path 11779" d="M38.261,1.456l-3.617,11-8.018.669a5.175,5.175,0,0,0-1.923,1.3,4.887,4.887,0,0,0-1.26,1.9q-.233,1,.891,5.25,1.487,5.815,1.884,8.507a22.8,22.8,0,0,1-.237,9.205,16.18,16.18,0,0,1-1.526,3.79q-3.183,5.452-11.368,8.681A45.155,45.155,0,0,1,0,54.95l1.763-11.8a38.609,38.609,0,0,0,8.847-2.1,5.051,5.051,0,0,0,3.315-3.425q.565-1.927-.427-6.68-.959-3.554-1.918-7.239A16.531,16.531,0,0,1,11.22,16a17.7,17.7,0,0,1,4.195-7.43,21.6,21.6,0,0,1,6.977-5.338A22.138,22.138,0,0,1,30.012,1.4a46.615,46.615,0,0,1,8.249.057ZM77.455.47Q72.808,14.4,69.522,26.729q-3.187,11.9-5.61,24.031l-10.4.205,4.579-17.083L45.1,33.425q-1.493,4.554-2.722,9.138Q41.052,47.615,39.989,52.9l-10.469.172q1.361-5.916,3.453-13.627Q38.085,20.1,43.794,2.75l10.4-.236L48.818,22.753l11.264.393,1.225-4.587q.3-.9,1.594-5.883l4.152-12Zm35.8,26.5a36.878,36.878,0,0,1-9.55,16.589q-7.624,7.947-16.338,8.683-8.78.8-11.989-7.2-2.646-6.911-.094-16.55a43.9,43.9,0,0,1,9.49-17.651q7.758-8.845,16.868-9.647Q113.4.152,116.146,10.352L112.6,13.146q2.945,5.614.654,13.824ZM106.7,16.7q-1.454-5.217-8.015-4.648-4.9.471-8.949,5.988A29.679,29.679,0,0,0,84.991,28.08a21.043,21.043,0,0,0-.635,9.505q1.024,4.951,5.961,4.55,4.44-.4,8.418-5.123a22.7,22.7,0,0,0,4.643-8.943q1.394-5.052-.459-8.408Zm48.96,10.241a36.878,36.878,0,0,1-9.55,16.589q-7.625,7.947-16.338,8.683-8.78.8-11.989-7.2-2.646-6.911-.094-16.55a43.9,43.9,0,0,1,9.485-17.653q7.758-8.845,16.869-9.647Q155.8.122,158.548,10.323l-3.542,2.8q2.943,5.614.653,13.824ZM149.1,16.674q-1.454-5.217-8.015-4.648-4.9.471-8.949,5.988A29.674,29.674,0,0,0,127.4,28.053a21.043,21.043,0,0,0-.635,9.505q1.024,4.951,5.961,4.55,4.44-.4,8.418-5.123a22.7,22.7,0,0,0,4.643-8.943q1.394-5.052-.459-8.408ZM199.438,0l-3.154,11.9-17.758,1.6,5.83,1.7q-3.816,11.87-6.473,21.971-2.191,8.144-4.349,16.054l-9.839-.294q1.927-9.7,4.483-19.278,2.826-10.6,6.439-20.94l-11.132.971,2.888-10.769Z" transform="translate(222.253 791.884) rotate(-10)" fill="url(#linear-gradient)"/>
    <path id="Path_11780" data-name="Path 11780" d="M16.141,22.494l-4.909,1.319L11.49,19.8a15.072,15.072,0,0,0-4.165-.167q-.471.03-1.048.106L4.666,23.965,0,23.922q3.845-9,11.232-23.755L17.585,0a172.319,172.319,0,0,0-1.444,22.494Zm-4.255-6.9q.122-2.493.258-5,.213-2.9.577-5.061Q11.049,8.907,7.964,15.67q.514-.076.957-.106A13.086,13.086,0,0,1,11.886,15.593Zm23.085,6.459-4.59.729-3.845-9.788q-.456,1.717-.714,2.675-.988,3.632-2.052,7.706l-4.7.411q1.292-5.652,2.8-11.3,1.02-3.815,2.051-7.573l-.56-1.687L28.436.183l3.937,12.28q.5-2.462,1.2-4.955A57.287,57.287,0,0,1,36.035.061L40.18,1.642q-1.429,4.408-2.569,8.588Q36.035,16.109,34.971,22.053Zm22.42-11.535A17.623,17.623,0,0,1,51.76,19.2q-4.311,3.792-13.05,4.536.669-3.009,1.474-6.019,1.763-6.581,4.1-13.041a9.043,9.043,0,0,0-1.566.377l.5-4.251A16.147,16.147,0,0,1,45.971.319q5.441-.471,8.891,2.022,3.956,2.826,2.527,8.176Zm-4.468.411A4.239,4.239,0,0,0,51.6,6.08,7.913,7.913,0,0,0,46.649,4.5L48.26,5.943A54.676,54.676,0,0,0,45.8,13.132q-.547,2.022-1.507,5.7a10.868,10.868,0,0,0,5.464-2.8,10.457,10.457,0,0,0,3.166-5.107Z" transform="translate(372.05 728.927) rotate(-10)" fill="#fff"/>
    <g id="Group_4625" data-name="Group 4625" transform="translate(386.284 700.792)">
      <g id="Path_11784" data-name="Path 11784" transform="translate(8.167 12.438) rotate(-166)">
        <path id="Path_11" data-name="Path 11" d="M6.183,0,8.417,10.009,0,10.72Z" fill="none"/>
        <path id="Path_12" data-name="Path 12" d="M5.987,1.283.858,10.175l6.982-.59-1.853-8.3M6.183,0,8.417,10.009,0,10.72Z" transform="translate(0 0)" fill="#e38110"/>
      </g>
      <path id="Path_11785" data-name="Path 11785" d="M6.183,0,8.417,10.009,0,10.72Z" transform="translate(8.938 13.376) rotate(-166)" fill="#fff"/>
    </g>
    <g id="Group_4629" data-name="Group 4629" transform="translate(444.876 727.207) rotate(39)">
      <g id="Path_11784-2" data-name="Path 11784" transform="translate(8.167 12.438) rotate(-166)">
        <path id="Path_13" data-name="Path 13" d="M6.183,0,8.417,10.009,0,10.72Z" transform="translate(0 0)" fill="none"/>
        <path id="Path_14" data-name="Path 14" d="M5.987,1.283.858,10.175l6.982-.59-1.853-8.3M6.183,0,8.417,10.009,0,10.72Z" transform="translate(0 0)" fill="#e38110"/>
      </g>
      <path id="Path_11785-2" data-name="Path 11785" d="M6.183,0,8.417,10.009,0,10.72Z" transform="translate(8.838 13.316) rotate(-166)" fill="#fff"/>
    </g>
    <g id="Group_4626" data-name="Group 4626" transform="translate(419.636 751.105) rotate(-48)">
      <g id="Path_11784-3" data-name="Path 11784" transform="translate(13.879 14.458) rotate(166)">
        <path id="Path_15" data-name="Path 15" d="M7.975,13.826,10.857.917,0,0Z" transform="translate(0 0)" fill="none"/>
        <path id="Path_16" data-name="Path 16" d="M7.779,12.544l2.5-11.2L.858.545l6.921,12m.2,1.283L0,0,10.857.917Z" transform="translate(0 0)" fill="#e38110"/>
      </g>
      <path id="Path_11785-3" data-name="Path 11785" d="M7.975,13.826,10.857.917,0,0Z" transform="translate(14.726 13.416) rotate(166)" fill="#fff"/>
    </g>
    <g id="Group_4628" data-name="Group 4628" transform="translate(434.185 721.462) rotate(-96.024)">
      <g id="Path_11784-4" data-name="Path 11784" transform="translate(9.558 10.072) rotate(166)">
        <path id="Path_17" data-name="Path 17" d="M5.492,9.521,7.476.631,0,0Z" transform="translate(0 0)" fill="none"/>
        <path id="Path_18" data-name="Path 18" d="M5.3,8.239,6.9,1.055.858.545,5.3,8.239m.2,1.283L0,0,7.476.631Z" transform="translate(0 0)" fill="#e38110"/>
      </g>
      <path id="Path_11785-4" data-name="Path 11785" d="M5.492,9.521,7.476.631,0,0Z" transform="translate(10.299 9.238) rotate(166)" fill="#fff"/>
    </g>
    <g id="Group_4627" data-name="Group 4627" transform="translate(413.134 717.591) rotate(-128)">
      <g id="Path_11784-5" data-name="Path 11784" transform="translate(18.586 19.166) rotate(166)">
        <path id="Path_19" data-name="Path 19" d="M10.68,18.516,14.538,1.225,0,0Z" transform="translate(0 0)" fill="none"/>
        <path id="Path_20" data-name="Path 20" d="M10.484,17.233,13.961,1.652.858.545l9.625,16.688m.2,1.283L0,0,14.538,1.228Z" transform="translate(0 0)" fill="#e38110"/>
      </g>
      <path id="Path_11785-5" data-name="Path 11785" d="M10.68,18.516,14.538,1.225,0,0Z" transform="translate(19.829 17.966) rotate(166)" fill="#fff"/>
    </g>
    <g id="Group_4634" data-name="Group 4634" transform="translate(193.76 693.089)">
      <path id="Path_11829" data-name="Path 11829" d="M31.683,52.173l-9.393.9,1.125-4.5a22.485,22.485,0,0,1-12.4,5.5q-8.235.762-10.319-8.1-1.72-6.994.827-16.894A46.114,46.114,0,0,1,11.012,10.7Q18.818,1.488,27.847.659,39.588-.485,42.333,10.213l-9.294,7.513q-1.092-6.37-7.9-5.746-4.993.415-9.1,6.266A32.877,32.877,0,0,0,11.177,28.84a23.787,23.787,0,0,0-.727,9.8q.893,5.159,5.755,4.673a12.953,12.953,0,0,0,5.028-1.35q4.564-2.493,7.276-13.122.4-1.593.794-3.566l9.922-2.631ZM79.145,29.188a36.729,36.729,0,0,1-9.1,16.234Q62.9,53.108,54.638,53.835q-8.4.762-11.609-6.924-2.844-6.855,6.783-44.558l9.819-.865L52.288,30.119a18.935,18.935,0,0,0-.364,8.863q1.158,4.743,5.424,4.328,4.233-.347,7.475-4.6Q67.469,35.138,76.1,1.523L86.487.589ZM123.794,0l-2.679,10.174q-5.292.208-9.922.624-3.936.377-8.007.8-.565,1.939-1.125,4.224a61.662,61.662,0,0,0-1.488,6.44q3.9-.589,7.74-.934l7.806-.692L113.273,31.5q-3.768,0-7.673.347-3.768.347-7.74,1.073a45.314,45.314,0,0,0-1.736,5.37,43.793,43.793,0,0,0-1.009,5.262q4.428-.659,8.864-1.073,4.4-.347,8.732-.762l-2.745,10.871q-7.012.277-13.957.9Q89,54.112,81.957,54.77q2.381-11.355,5.127-22.088Q89.7,22.573,92.341,12.117l-3.737.347,2.543-10.04q11.807-.519,21-1.35Q117.576.589,123.794,0Zm30.134.9L150.32,12.359l-8.007.692a5.15,5.15,0,0,0-1.918,1.35,5.109,5.109,0,0,0-1.257,1.974q-.232,1.036.893,5.47,1.488,6.058,1.884,8.863a24.759,24.759,0,0,1-.232,9.59,17.261,17.261,0,0,1-1.521,3.947q-3.175,5.678-11.344,9.036A43.508,43.508,0,0,1,115.754,56.6l1.753-12.291a37.187,37.187,0,0,0,8.831-2.181,5.165,5.165,0,0,0,3.307-3.566q.565-2.008-.43-6.959-.959-3.7-1.918-7.548a17.948,17.948,0,0,1-.364-8.032,18.641,18.641,0,0,1,4.186-7.74,21.648,21.648,0,0,1,6.963-5.558,21.339,21.339,0,0,1,7.607-1.9,44.607,44.607,0,0,1,8.238.07Zm29.237,0-3.607,11.459-8.007.692a5.15,5.15,0,0,0-1.918,1.35,5.109,5.109,0,0,0-1.257,1.974q-.232,1.036.893,5.47,1.488,6.058,1.884,8.863a24.759,24.759,0,0,1-.232,9.59,17.265,17.265,0,0,1-1.521,3.947q-3.175,5.678-11.344,9.036A43.509,43.509,0,0,1,144.991,56.6l1.753-12.291a37.187,37.187,0,0,0,8.831-2.181,5.165,5.165,0,0,0,3.307-3.566q.565-2.008-.43-6.959-.959-3.7-1.918-7.548a17.949,17.949,0,0,1-.364-8.032,18.642,18.642,0,0,1,4.186-7.74,21.648,21.648,0,0,1,6.962-5.558,21.339,21.339,0,0,1,7.607-1.9,44.607,44.607,0,0,1,8.235.07Z" transform="translate(0 28.652) rotate(-9)" fill="none" stroke="#fff" stroke-width="1"/>
      <path id="Path_11828" data-name="Path 11828" d="M31.683,52.173l-9.393.9,1.125-4.5a22.485,22.485,0,0,1-12.4,5.5q-8.235.762-10.319-8.1-1.72-6.994.827-16.894A46.114,46.114,0,0,1,11.012,10.7Q18.818,1.488,27.847.659,39.588-.485,42.333,10.213l-9.294,7.513q-1.092-6.37-7.9-5.746-4.993.415-9.1,6.266A32.877,32.877,0,0,0,11.177,28.84a23.787,23.787,0,0,0-.727,9.8q.893,5.159,5.755,4.673a12.953,12.953,0,0,0,5.028-1.35q4.564-2.493,7.276-13.122.4-1.593.794-3.566l9.922-2.631ZM79.145,29.188a36.729,36.729,0,0,1-9.1,16.234Q62.9,53.108,54.638,53.835q-8.4.762-11.609-6.924-2.844-6.855,6.783-44.558l9.819-.865L52.288,30.119a18.935,18.935,0,0,0-.364,8.863q1.158,4.743,5.424,4.328,4.233-.347,7.475-4.6Q67.469,35.138,76.1,1.523L86.487.589ZM123.794,0l-2.679,10.174q-5.292.208-9.922.624-3.936.377-8.007.8-.565,1.939-1.125,4.224a61.662,61.662,0,0,0-1.488,6.44q3.9-.589,7.74-.934l7.806-.692L113.273,31.5q-3.768,0-7.673.347-3.768.347-7.74,1.073a45.314,45.314,0,0,0-1.736,5.37,43.793,43.793,0,0,0-1.009,5.262q4.428-.659,8.864-1.073,4.4-.347,8.732-.762l-2.745,10.871q-7.012.277-13.957.9Q89,54.112,81.957,54.77q2.381-11.355,5.127-22.088Q89.7,22.573,92.341,12.117l-3.737.347,2.543-10.04q11.807-.519,21-1.35Q117.576.589,123.794,0Zm30.134.9L150.32,12.359l-8.007.692a5.15,5.15,0,0,0-1.918,1.35,5.109,5.109,0,0,0-1.257,1.974q-.232,1.036.893,5.47,1.488,6.058,1.884,8.863a24.759,24.759,0,0,1-.232,9.59,17.261,17.261,0,0,1-1.521,3.947q-3.175,5.678-11.344,9.036A43.508,43.508,0,0,1,115.754,56.6l1.753-12.291a37.187,37.187,0,0,0,8.831-2.181,5.165,5.165,0,0,0,3.307-3.566q.565-2.008-.43-6.959-.959-3.7-1.918-7.548a17.948,17.948,0,0,1-.364-8.032,18.641,18.641,0,0,1,4.186-7.74,21.648,21.648,0,0,1,6.963-5.558,21.339,21.339,0,0,1,7.607-1.9,44.607,44.607,0,0,1,8.238.07Zm29.237,0-3.607,11.459-8.007.692a5.15,5.15,0,0,0-1.918,1.35,5.109,5.109,0,0,0-1.257,1.974q-.232,1.036.893,5.47,1.488,6.058,1.884,8.863a24.759,24.759,0,0,1-.232,9.59,17.265,17.265,0,0,1-1.521,3.947q-3.175,5.678-11.344,9.036A43.509,43.509,0,0,1,144.991,56.6l1.753-12.291a37.187,37.187,0,0,0,8.831-2.181,5.165,5.165,0,0,0,3.307-3.566q.565-2.008-.43-6.959-.959-3.7-1.918-7.548a17.949,17.949,0,0,1-.364-8.032,18.642,18.642,0,0,1,4.186-7.74,21.648,21.648,0,0,1,6.962-5.558,21.339,21.339,0,0,1,7.607-1.9,44.607,44.607,0,0,1,8.235.07Z" transform="translate(2.193 30.219) rotate(-9)" fill="url(#linear-gradient)"/>
    </g>
  </g>
</svg>
