<svg xmlns="http://www.w3.org/2000/svg" width="33.747" height="41.367" viewBox="0 0 33.747 41.367">
  <g id="smartphone" transform="translate(-0.103 0.35)">
    <path id="Path_976" data-name="Path 976" d="M32,35.245h-.615l.6-3.277A.606.606,0,0,0,32,31.856V17.622a3.587,3.587,0,0,0-3.75-3.389H27.5V3.389A3.587,3.587,0,0,0,23.75,0h-15A3.587,3.587,0,0,0,5,3.389v7.155a3.211,3.211,0,0,0-1.5-.377A3.016,3.016,0,0,0,.748,11.791a2.507,2.507,0,0,0,.562,2.926A1.951,1.951,0,0,0,.5,16.267v1.356a1.918,1.918,0,0,0,.585,1.356A1.918,1.918,0,0,0,.5,20.333v1.356a1.918,1.918,0,0,0,.585,1.356A1.918,1.918,0,0,0,.5,24.4v1.356a2.15,2.15,0,0,0,2.25,2.033H5v1.356a3.587,3.587,0,0,0,3.75,3.389h.96l1,2.711H9.5A1.433,1.433,0,0,0,8,36.6v2.711a1.433,1.433,0,0,0,1.5,1.356H32a1.433,1.433,0,0,0,1.5-1.356V36.6A1.433,1.433,0,0,0,32,35.245ZM11.75,1.356h9v.678a.717.717,0,0,1-.75.678H12.5a.717.717,0,0,1-.75-.678ZM8,18.3H2.75A.717.717,0,0,1,2,17.622V16.267a.717.717,0,0,1,.75-.678H8A1.363,1.363,0,1,1,8,18.3Zm1.5,2.711A1.433,1.433,0,0,1,8,22.367H2.75A.717.717,0,0,1,2,21.689V20.333a.717.717,0,0,1,.75-.678H8A1.433,1.433,0,0,1,9.5,21.011Zm-6-9.489A1.433,1.433,0,0,1,5,12.878a1.433,1.433,0,0,1-1.5,1.356A1.433,1.433,0,0,1,2,12.878,1.433,1.433,0,0,1,3.5,11.522ZM2,25.756V24.4a.717.717,0,0,1,.75-.678H8a1.363,1.363,0,1,1,0,2.711H2.75A.717.717,0,0,1,2,25.756Zm4.5,3.389V27.789H8a2.993,2.993,0,0,0,2.811-1.754,2.533,2.533,0,0,0-.847-2.99,2.513,2.513,0,0,0,0-4.067,2.533,2.533,0,0,0,.847-2.99A2.993,2.993,0,0,0,8,14.233H6.5V3.389A2.15,2.15,0,0,1,8.75,1.356h1.5v.678A2.15,2.15,0,0,0,12.5,4.067H20a2.15,2.15,0,0,0,2.25-2.033V1.356h1.5A2.15,2.15,0,0,1,26,3.389V14.233h-.75a3.583,3.583,0,0,0-3.75,3.389,3.583,3.583,0,0,0,3.75,3.389H26v8.133a2.15,2.15,0,0,1-2.25,2.033h-15A2.15,2.15,0,0,1,6.5,29.144Zm4.791,3.389H23.75a3.587,3.587,0,0,0,3.75-3.389V20.333a.717.717,0,0,0-.75-.678h-1.5A2.15,2.15,0,0,1,23,17.622a2.15,2.15,0,0,1,2.25-2.033h3a2.15,2.15,0,0,1,2.25,2.033V31.8l-.635,3.445H12.291ZM9.5,39.311V36.6H32v2.711Zm0,0" fill="#f9a22a" stroke="#f9a22a" stroke-width="0.7"/>
    <path id="Path_977" data-name="Path 977" d="M122.848,97.208l6.868-6.868.971.971-6.868,6.868Zm0,0" transform="translate(-110.54 -82.71)" fill="#f9a22a" stroke="#f9a22a" stroke-width="0.7"/>
    <path id="Path_978" data-name="Path 978" d="M176.5,146.061A2.061,2.061,0,1,0,178.561,144,2.061,2.061,0,0,0,176.5,146.061Zm2.747,0a.687.687,0,1,1-.687-.687A.687.687,0,0,1,179.247,146.061Zm0,0" transform="translate(-159.281 -131.818)" fill="#f9a22a" stroke="#f9a22a" stroke-width="0.7"/>
    <path id="Path_979" data-name="Path 979" d="M114.561,84.121a2.061,2.061,0,1,0-2.061-2.061A2.061,2.061,0,0,0,114.561,84.121Zm0-2.747a.687.687,0,1,1-.687.687A.687.687,0,0,1,114.561,81.374Zm0,0" transform="translate(-101.36 -73.232)" fill="#f9a22a" stroke="#f9a22a" stroke-width="0.7"/>
    <path id="Path_980" data-name="Path 980" d="M160.5,272h1.374v1.374H160.5Zm0,0" transform="translate(-144.94 -248.966)" fill="#f9a22a" stroke="#f9a22a" stroke-width="0.7"/>
    <path id="Path_981" data-name="Path 981" d="M192.5,272h1.374v1.374H192.5Zm0,0" transform="translate(-173.928 -248.966)" fill="#f9a22a" stroke="#f9a22a" stroke-width="0.7"/>
    <path id="Path_982" data-name="Path 982" d="M128.5,272h1.374v1.374H128.5Zm0,0" transform="translate(-115.952 -248.966)" fill="#f9a22a" stroke="#f9a22a" stroke-width="0.7"/>
  </g>
</svg>
