<svg xmlns="http://www.w3.org/2000/svg" width="50.919" height="51" viewBox="0 0 50.919 51">
  <g id="paint-palette-and-brush" transform="translate(0.5 -16.012)">
    <path id="Path_945" data-name="Path 945" d="M47.932,206.025a3.636,3.636,0,0,0-2.245-.78,3.6,3.6,0,0,0-2.818,1.345,3.566,3.566,0,0,0,.572,5.04,3.634,3.634,0,0,0,2.245.78,3.6,3.6,0,0,0,2.818-1.347,3.566,3.566,0,0,0-.572-5.038Zm-.708,4.009a1.978,1.978,0,0,1-2.763.308,1.923,1.923,0,0,1-.311-2.721,1.981,1.981,0,0,1,2.764-.306,1.923,1.923,0,0,1,.311,2.72Z" transform="translate(-36.318 -155.005)" fill="#f9a22a" stroke="#f9a22a" stroke-width="1"/>
    <path id="Path_946" data-name="Path 946" d="M167.552,104.322a3.6,3.6,0,0,0,3.4-2.407,3.537,3.537,0,0,0-.159-2.731,3.618,3.618,0,0,0-4.811-1.673,3.569,3.569,0,0,0-1.684,4.784A3.636,3.636,0,0,0,167.552,104.322Zm-1.861-4.217a1.93,1.93,0,0,1,1-1.111,1.975,1.975,0,0,1,2.626.908,1.905,1.905,0,0,1,.086,1.471,1.934,1.934,0,0,1-1,1.112,1.963,1.963,0,0,1-.851.193,1.983,1.983,0,0,1-1.776-1.1A1.9,1.9,0,0,1,165.691,100.105Z" transform="translate(-138.184 -66.233)" fill="#f9a22a" stroke="#f9a22a" stroke-width="1"/>
    <path id="Path_947" data-name="Path 947" d="M107.341,62.495a3.653,3.653,0,0,0,.8.09,3.583,3.583,0,0,0,3.514-2.783,3.545,3.545,0,0,0-.46-2.7,3.582,3.582,0,0,0-2.256-1.594,3.652,3.652,0,0,0-.807-.091,3.58,3.58,0,0,0-3.51,2.784,3.537,3.537,0,0,0,.457,2.7A3.577,3.577,0,0,0,107.341,62.495Zm-1.114-3.921a1.944,1.944,0,0,1,1.909-1.51,2.007,2.007,0,0,1,.444.05,1.95,1.95,0,0,1,1.229.867,1.91,1.91,0,0,1,.249,1.452,1.971,1.971,0,0,1-1.913,1.508,2.012,2.012,0,0,1-.442-.05,1.946,1.946,0,0,1-1.229-.866A1.905,1.905,0,0,1,106.227,58.574Z" transform="translate(-88.112 -33.581)" fill="#f9a22a" stroke="#f9a22a" stroke-width="1"/>
    <path id="Path_948" data-name="Path 948" d="M40.463,81.809a3.57,3.57,0,0,0,.571-5.04,3.628,3.628,0,0,0-5.063-.566,3.567,3.567,0,0,0-.571,5.04,3.623,3.623,0,0,0,5.063.566Zm-3.783-1.6a1.924,1.924,0,0,1,.309-2.721,1.984,1.984,0,0,1,2.765.307,1.927,1.927,0,0,1-.312,2.722,1.98,1.98,0,0,1-2.762-.308Z" transform="translate(-29.871 -48.385)" fill="#f9a22a" stroke="#f9a22a" stroke-width="1"/>
    <path id="Path_949" data-name="Path 949" d="M49.647,24.529a1.161,1.161,0,0,0-.893-.393c-.527,0-1.925,0-10.42,8.046l-.516.491A25.191,25.191,0,0,0,30.2,21.5a21.113,21.113,0,0,0-13.568-4.983h0A20.568,20.568,0,0,0,6.058,19.893C2.151,22.45,0,25.87,0,29.521c0,4.409,2.235,6.253,4.03,7.734,1.464,1.208,2.62,2.163,2.62,4.254S5.5,44.554,4.033,45.761C2.238,47.242,0,49.085.006,53.494c0,3.651,2.154,7.071,6.062,9.63A20.585,20.585,0,0,0,16.64,66.512h.006a21.473,21.473,0,0,0,16-7.315,26.159,26.159,0,0,0,6.629-17.407c1.433-1.815,2.821-3.619,4.089-5.319,2.168-2.908,3.836-5.308,4.956-7.133C49.809,26.922,50.459,25.44,49.647,24.529ZM31.352,57.738a19.728,19.728,0,0,1-14.705,6.719h-.006c-5.954,0-14.787-4.606-14.789-10.964,0-3.374,1.593-4.689,3.28-6.082,1.577-1.3,3.365-2.777,3.364-5.9s-1.789-4.6-3.367-5.9c-1.688-1.394-3.283-2.71-3.284-6.084,0-3.9,3.225-6.6,5.148-7.856a19.046,19.046,0,0,1,9.632-3.1h0A19.4,19.4,0,0,1,29.1,23.144a23.2,23.2,0,0,1,7.229,10.967c-4,3.891-8.339,8.377-11.567,11.982-5.362.773-6.093,4.75-6.627,7.673-.455,2.488-.75,3.691-2.475,3.845a.97.97,0,0,0-.838.864,1.052,1.052,0,0,0,.559,1.109,15.452,15.452,0,0,0,5.833,1.251h0a8.756,8.756,0,0,0,5.478-1.723,10.815,10.815,0,0,0,3.7-6.638c2.109-2.376,4.52-5.24,6.9-8.191A23.747,23.747,0,0,1,31.352,57.738Zm-2.82-5.458c-.978,4.314-3.439,6.5-7.321,6.5h0a12.5,12.5,0,0,1-2.828-.349,8.8,8.8,0,0,0,1.558-4.256c.507-2.775.987-5.4,4.911-6.026ZM41.277,36.055c-3.659,4.852-8.087,10.3-11.733,14.443l-.564-.633-2.49-2.794c3.305-3.662,7.546-8.03,11.5-11.851h0c.461-.446.919-.885,1.371-1.314a72.289,72.289,0,0,1,8.225-7.081A79.108,79.108,0,0,1,41.277,36.055Z" transform="translate(0 0)" fill="#f9a22a" stroke="#f9a22a" stroke-width="1"/>
  </g>
</svg>
